<svg width="634" height="1493" viewBox="0 0 634 1493" fill="none" xmlns="http://www.w3.org/2000/svg">
<path fill-rule="evenodd" clip-rule="evenodd" d="M472.38 162.167C365.925 55.4303 239.023 2 87.9541 2H-311.467C-462.908 2 -590.554 55.0593 -697.38 162.167C-803.835 268.904 -857 395.678 -857 546.445V946.555C-857 1097.32 -803.835 1224.1 -697.38 1330.83C-590.926 1437.57 -463.899 1491 -312.954 1491H86.4669C237.907 1491 365.554 1437.94 472.38 1330.83C578.958 1224.1 632 1097.32 632 946.555V546.445C632.124 395.678 578.958 268.904 472.38 162.167ZM342.875 946.555C342.875 1016.06 316.85 1076.79 267.65 1125.89C218.079 1175.37 156.61 1200.97 86.5909 1200.97H-312.954C-382.23 1200.97 -442.336 1174.62 -491.411 1126.14C-541.107 1077.16 -567.875 1016.43 -567.875 946.555V546.445C-567.875 476.936 -541.85 416.209 -492.65 367.107C-443.079 317.635 -381.611 292.033 -311.591 292.033H87.8301C157.106 292.033 217.211 318.377 266.287 366.86C315.982 415.838 342.751 476.565 342.751 546.445V746.562L342.875 946.555Z" stroke="black" stroke-opacity="0.15" stroke-width="3"/>
</svg>
