<svg width="772" height="519" viewBox="0 0 772 519" fill="none" xmlns="http://www.w3.org/2000/svg">
<path fill-rule="evenodd" clip-rule="evenodd" d="M1331.38 -811.833C1224.93 -918.57 1098.02 -972 946.954 -972H547.533C396.092 -972 268.446 -918.941 161.62 -811.833C55.1653 -705.096 2 -578.322 2 -427.555V-27.4453C2 123.322 55.1653 250.096 161.62 356.833C268.074 463.57 395.101 517 546.046 517H945.467C1096.91 517 1224.55 463.941 1331.38 356.833C1437.96 250.096 1491 123.322 1491 -27.4453V-427.555C1491.12 -578.322 1437.96 -705.096 1331.38 -811.833ZM1201.87 -27.4453C1201.87 42.0636 1175.85 102.791 1126.65 151.893C1077.08 201.365 1015.61 226.967 945.591 226.967H546.046C476.77 226.967 416.664 200.623 367.589 152.14C317.893 103.162 291.125 42.4347 291.125 -27.4453V-427.555C291.125 -497.064 317.15 -557.791 366.35 -606.893C415.921 -656.365 477.389 -681.967 547.409 -681.967H946.83C1016.11 -681.967 1076.21 -655.623 1125.29 -607.14C1174.98 -558.162 1201.75 -497.435 1201.75 -427.555V-227.438L1201.87 -27.4453Z" stroke="black" stroke-opacity="0.15" stroke-width="3"/>
</svg>
