<svg width="772" height="519" fill="none" xmlns="http://www.w3.org/2000/svg"><path clip-rule="evenodd" d="M1331.38-811.833C1224.93-918.57 1098.02-972 946.954-972H547.533c-151.441 0-279.087 53.059-385.913 160.167C55.165-705.096 2-578.322 2-427.555v400.11c0 150.767 53.165 277.541 159.62 384.278C268.074 463.57 395.101 517 546.046 517h399.421c151.443 0 279.083-53.059 385.913-160.167C1437.96 250.096 1491 123.322 1491-27.445v-400.11c.12-150.767-53.04-277.541-159.62-384.278ZM1201.87-27.445c0 69.509-26.02 130.236-75.22 179.338-49.57 49.472-111.04 75.074-181.059 75.074H546.046c-69.276 0-129.382-26.344-178.457-74.827-49.696-48.978-76.464-109.705-76.464-179.585v-400.11c0-69.509 26.025-130.236 75.225-179.338 49.571-49.472 111.039-75.074 181.059-75.074H946.83c69.28 0 129.38 26.344 178.46 74.827 49.69 48.978 76.46 109.705 76.46 179.585v200.117l.12 199.993Z" stroke="#000" stroke-opacity=".15" stroke-width="3"/></svg>