<svg width="634" height="1493" fill="none" xmlns="http://www.w3.org/2000/svg"><path clip-rule="evenodd" d="M472.38 162.167C365.925 55.43 239.023 2 87.954 2h-399.421C-462.908 2-590.554 55.06-697.38 162.167-803.835 268.904-857 395.678-857 546.445v400.11c0 150.765 53.165 277.545 159.62 384.275C-590.926 1437.57-463.899 1491-312.954 1491h399.42c151.441 0 279.088-53.06 385.914-160.17C578.958 1224.1 632 1097.32 632 946.555v-400.11c.124-150.767-53.042-277.541-159.62-384.278ZM342.875 946.555c0 69.505-26.025 130.235-75.225 179.335-49.571 49.48-111.04 75.08-181.06 75.08h-399.544c-69.276 0-129.382-26.35-178.457-74.83-49.696-48.98-76.464-109.71-76.464-179.585v-400.11c0-69.509 26.025-130.236 75.225-179.338 49.571-49.472 111.039-75.074 181.059-75.074H87.83c69.276 0 129.381 26.344 178.457 74.827 49.695 48.978 76.464 109.705 76.464 179.585v200.117l.124 199.993Z" stroke="#000" stroke-opacity=".15" stroke-width="3"/></svg>